<?xml version="1.0" encoding="utf-8" standalone="no"?>
<!DOCTYPE svg PUBLIC "-//W3C//DTD SVG 1.1//EN"
  "http://www.w3.org/Graphics/SVG/1.1/DTD/svg11.dtd">
<svg xmlns:xlink="http://www.w3.org/1999/xlink" width="475.911312pt" height="312.886719pt" viewBox="0 0 475.911312 312.886719" xmlns="http://www.w3.org/2000/svg" version="1.1">
 <metadata>
  <rdf:RDF xmlns:dc="http://purl.org/dc/elements/1.1/" xmlns:cc="http://creativecommons.org/ns#" xmlns:rdf="http://www.w3.org/1999/02/22-rdf-syntax-ns#">
   <cc:Work>
    <dc:type rdf:resource="http://purl.org/dc/dcmitype/StillImage"/>
    <dc:date>2026-06-14T03:38:16.297046</dc:date>
    <dc:format>image/svg+xml</dc:format>
    <dc:creator>
     <cc:Agent>
      <dc:title>Matplotlib v3.11.0, https://matplotlib.org/</dc:title>
     </cc:Agent>
    </dc:creator>
   </cc:Work>
  </rdf:RDF>
 </metadata>
 <defs>
  <style type="text/css">*{stroke-linejoin: round; stroke-linecap: butt}</style>
 </defs>
 <g id="figure_1">
  <g id="patch_1">
   <path d="M 0 312.886719 
L 475.911312 312.886719 
L 475.911312 0 
L 0 0 
z
" style="fill: #ffffff"/>
  </g>
  <g id="axes_1">
   <g id="patch_2">
    <path d="M 44.202969 276.48 
L 462.378969 276.48 
L 462.378969 76.896 
L 44.202969 76.896 
z
" style="fill: #ffffff"/>
   </g>
   <g id="matplotlib.axis_1">
    <g id="xtick_1">
     <g id="line2d_1">
      <defs>
       <path id="m9089d225ea" d="M 0 0 
L 0 3.5 
" style="stroke: #000000; stroke-width: 0.8"/>
      </defs>
      <g>
       <use xlink:href="#m9089d225ea" x="44.202969" y="276.48" style="stroke: #000000; stroke-width: 0.8"/>
      </g>
     </g>
     <g id="text_1">
      <text style="font-size: 9px; font-family: 'Songti SC', 'STSong', 'Heiti SC', 'Arial Unicode MS', 'DejaVu Sans', sans-serif; text-anchor: middle" x="44.202969" y="291.22" transform="rotate(-0 44.202969 291.22)">0</text>
     </g>
    </g>
    <g id="xtick_2">
     <g id="line2d_2">
      <g>
       <use xlink:href="#m9089d225ea" x="90.666969" y="276.48" style="stroke: #000000; stroke-width: 0.8"/>
      </g>
     </g>
     <g id="text_2">
      <text style="font-size: 9px; font-family: 'Songti SC', 'STSong', 'Heiti SC', 'Arial Unicode MS', 'DejaVu Sans', sans-serif; text-anchor: middle" x="90.666969" y="291.22" transform="rotate(-0 90.666969 291.22)">20</text>
     </g>
    </g>
    <g id="xtick_3">
     <g id="line2d_3">
      <g>
       <use xlink:href="#m9089d225ea" x="137.130969" y="276.48" style="stroke: #000000; stroke-width: 0.8"/>
      </g>
     </g>
     <g id="text_3">
      <text style="font-size: 9px; font-family: 'Songti SC', 'STSong', 'Heiti SC', 'Arial Unicode MS', 'DejaVu Sans', sans-serif; text-anchor: middle" x="137.130969" y="291.22" transform="rotate(-0 137.130969 291.22)">40</text>
     </g>
    </g>
    <g id="xtick_4">
     <g id="line2d_4">
      <g>
       <use xlink:href="#m9089d225ea" x="183.594969" y="276.48" style="stroke: #000000; stroke-width: 0.8"/>
      </g>
     </g>
     <g id="text_4">
      <text style="font-size: 9px; font-family: 'Songti SC', 'STSong', 'Heiti SC', 'Arial Unicode MS', 'DejaVu Sans', sans-serif; text-anchor: middle" x="183.594969" y="291.22" transform="rotate(-0 183.594969 291.22)">60</text>
     </g>
    </g>
    <g id="xtick_5">
     <g id="line2d_5">
      <g>
       <use xlink:href="#m9089d225ea" x="230.058969" y="276.48" style="stroke: #000000; stroke-width: 0.8"/>
      </g>
     </g>
     <g id="text_5">
      <text style="font-size: 9px; font-family: 'Songti SC', 'STSong', 'Heiti SC', 'Arial Unicode MS', 'DejaVu Sans', sans-serif; text-anchor: middle" x="230.058969" y="291.22" transform="rotate(-0 230.058969 291.22)">80</text>
     </g>
    </g>
    <g id="xtick_6">
     <g id="line2d_6">
      <g>
       <use xlink:href="#m9089d225ea" x="276.522969" y="276.48" style="stroke: #000000; stroke-width: 0.8"/>
      </g>
     </g>
     <g id="text_6">
      <text style="font-size: 9px; font-family: 'Songti SC', 'STSong', 'Heiti SC', 'Arial Unicode MS', 'DejaVu Sans', sans-serif; text-anchor: middle" x="276.522969" y="291.22" transform="rotate(-0 276.522969 291.22)">100</text>
     </g>
    </g>
    <g id="xtick_7">
     <g id="line2d_7">
      <g>
       <use xlink:href="#m9089d225ea" x="322.986969" y="276.48" style="stroke: #000000; stroke-width: 0.8"/>
      </g>
     </g>
     <g id="text_7">
      <text style="font-size: 9px; font-family: 'Songti SC', 'STSong', 'Heiti SC', 'Arial Unicode MS', 'DejaVu Sans', sans-serif; text-anchor: middle" x="322.986969" y="291.22" transform="rotate(-0 322.986969 291.22)">120</text>
     </g>
    </g>
    <g id="xtick_8">
     <g id="line2d_8">
      <g>
       <use xlink:href="#m9089d225ea" x="369.450969" y="276.48" style="stroke: #000000; stroke-width: 0.8"/>
      </g>
     </g>
     <g id="text_8">
      <text style="font-size: 9px; font-family: 'Songti SC', 'STSong', 'Heiti SC', 'Arial Unicode MS', 'DejaVu Sans', sans-serif; text-anchor: middle" x="369.450969" y="291.22" transform="rotate(-0 369.450969 291.22)">140</text>
     </g>
    </g>
    <g id="xtick_9">
     <g id="line2d_9">
      <g>
       <use xlink:href="#m9089d225ea" x="415.914969" y="276.48" style="stroke: #000000; stroke-width: 0.8"/>
      </g>
     </g>
     <g id="text_9">
      <text style="font-size: 9px; font-family: 'Songti SC', 'STSong', 'Heiti SC', 'Arial Unicode MS', 'DejaVu Sans', sans-serif; text-anchor: middle" x="415.914969" y="291.22" transform="rotate(-0 415.914969 291.22)">160</text>
     </g>
    </g>
    <g id="xtick_10">
     <g id="line2d_10">
      <g>
       <use xlink:href="#m9089d225ea" x="462.378969" y="276.48" style="stroke: #000000; stroke-width: 0.8"/>
      </g>
     </g>
     <g id="text_10">
      <text style="font-size: 9px; font-family: 'Songti SC', 'STSong', 'Heiti SC', 'Arial Unicode MS', 'DejaVu Sans', sans-serif; text-anchor: middle" x="462.378969" y="291.22" transform="rotate(-0 462.378969 291.22)">180</text>
     </g>
    </g>
    <g id="text_11">
     <text style="font-size: 9px; font-family: 'Songti SC', 'STSong', 'Heiti SC', 'Arial Unicode MS', 'DejaVu Sans', sans-serif; text-anchor: middle" x="253.290969" y="304.22" transform="rotate(-0 253.290969 304.22)">时间 / h</text>
    </g>
   </g>
   <g id="matplotlib.axis_2">
    <g id="ytick_1">
     <g id="line2d_11">
      <path d="M 44.202969 267.408 
L 462.378969 267.408 
" clip-path="url(#p089b99a7cf)" style="fill: none; stroke: #e6e6e6; stroke-width: 0.7; stroke-linecap: square"/>
     </g>
     <g id="line2d_12">
      <defs>
       <path id="meb5bf9c55d" d="M 0 0 
L -3.5 0 
" style="stroke: #000000; stroke-width: 0.8"/>
      </defs>
      <g>
       <use xlink:href="#meb5bf9c55d" x="44.202969" y="267.408" style="stroke: #000000; stroke-width: 0.8"/>
      </g>
     </g>
     <g id="text_12">
      <text style="font-size: 9px; font-family: 'Songti SC', 'STSong', 'Heiti SC', 'Arial Unicode MS', 'DejaVu Sans', sans-serif; text-anchor: end" x="37.202969" y="271.278" transform="rotate(-0 37.202969 271.278)">0</text>
     </g>
    </g>
    <g id="ytick_2">
     <g id="line2d_13">
      <path d="M 44.202969 231.12 
L 462.378969 231.12 
" clip-path="url(#p089b99a7cf)" style="fill: none; stroke: #e6e6e6; stroke-width: 0.7; stroke-linecap: square"/>
     </g>
     <g id="line2d_14">
      <g>
       <use xlink:href="#meb5bf9c55d" x="44.202969" y="231.12" style="stroke: #000000; stroke-width: 0.8"/>
      </g>
     </g>
     <g id="text_13">
      <text style="font-size: 9px; font-family: 'Songti SC', 'STSong', 'Heiti SC', 'Arial Unicode MS', 'DejaVu Sans', sans-serif; text-anchor: end" x="37.202969" y="234.99" transform="rotate(-0 37.202969 234.99)">200</text>
     </g>
    </g>
    <g id="ytick_3">
     <g id="line2d_15">
      <path d="M 44.202969 194.832 
L 462.378969 194.832 
" clip-path="url(#p089b99a7cf)" style="fill: none; stroke: #e6e6e6; stroke-width: 0.7; stroke-linecap: square"/>
     </g>
     <g id="line2d_16">
      <g>
       <use xlink:href="#meb5bf9c55d" x="44.202969" y="194.832" style="stroke: #000000; stroke-width: 0.8"/>
      </g>
     </g>
     <g id="text_14">
      <text style="font-size: 9px; font-family: 'Songti SC', 'STSong', 'Heiti SC', 'Arial Unicode MS', 'DejaVu Sans', sans-serif; text-anchor: end" x="37.202969" y="198.702" transform="rotate(-0 37.202969 198.702)">400</text>
     </g>
    </g>
    <g id="ytick_4">
     <g id="line2d_17">
      <path d="M 44.202969 158.544 
L 462.378969 158.544 
" clip-path="url(#p089b99a7cf)" style="fill: none; stroke: #e6e6e6; stroke-width: 0.7; stroke-linecap: square"/>
     </g>
     <g id="line2d_18">
      <g>
       <use xlink:href="#meb5bf9c55d" x="44.202969" y="158.544" style="stroke: #000000; stroke-width: 0.8"/>
      </g>
     </g>
     <g id="text_15">
      <text style="font-size: 9px; font-family: 'Songti SC', 'STSong', 'Heiti SC', 'Arial Unicode MS', 'DejaVu Sans', sans-serif; text-anchor: end" x="37.202969" y="162.414" transform="rotate(-0 37.202969 162.414)">600</text>
     </g>
    </g>
    <g id="ytick_5">
     <g id="line2d_19">
      <path d="M 44.202969 122.256 
L 462.378969 122.256 
" clip-path="url(#p089b99a7cf)" style="fill: none; stroke: #e6e6e6; stroke-width: 0.7; stroke-linecap: square"/>
     </g>
     <g id="line2d_20">
      <g>
       <use xlink:href="#meb5bf9c55d" x="44.202969" y="122.256" style="stroke: #000000; stroke-width: 0.8"/>
      </g>
     </g>
     <g id="text_16">
      <text style="font-size: 9px; font-family: 'Songti SC', 'STSong', 'Heiti SC', 'Arial Unicode MS', 'DejaVu Sans', sans-serif; text-anchor: end" x="37.202969" y="126.126" transform="rotate(-0 37.202969 126.126)">800</text>
     </g>
    </g>
    <g id="ytick_6">
     <g id="line2d_21">
      <path d="M 44.202969 85.968 
L 462.378969 85.968 
" clip-path="url(#p089b99a7cf)" style="fill: none; stroke: #e6e6e6; stroke-width: 0.7; stroke-linecap: square"/>
     </g>
     <g id="line2d_22">
      <g>
       <use xlink:href="#meb5bf9c55d" x="44.202969" y="85.968" style="stroke: #000000; stroke-width: 0.8"/>
      </g>
     </g>
     <g id="text_17">
      <text style="font-size: 9px; font-family: 'Songti SC', 'STSong', 'Heiti SC', 'Arial Unicode MS', 'DejaVu Sans', sans-serif; text-anchor: end" x="37.202969" y="89.838" transform="rotate(-0 37.202969 89.838)">1000</text>
     </g>
    </g>
    <g id="text_18">
     <text style="font-size: 9px; font-family: 'Songti SC', 'STSong', 'Heiti SC', 'Arial Unicode MS', 'DejaVu Sans', sans-serif; text-anchor: middle" x="14.94" y="176.688" transform="rotate(-90 14.94 176.688)">人数</text>
    </g>
   </g>
   <g id="line2d_23">
    <path d="M 44.202969 85.968 
L 46.526169 98.021664 
L 48.849369 98.384544 
L 51.172569 104.039424 
L 55.818969 113.952096 
L 58.142169 120.024288 
L 62.788569 133.402464 
L 67.434969 149.000256 
L 69.758169 157.431168 
L 72.081369 166.732992 
L 74.404569 175.11552 
L 76.727769 184.586688 
L 79.050969 193.555872 
L 86.020569 218.425248 
L 88.343769 225.386496 
L 90.666969 231.869952 
L 92.990169 237.645792 
L 95.313369 242.726112 
L 97.636569 246.862944 
L 99.959769 250.667136 
L 102.282969 253.76976 
L 104.606169 256.3704 
L 106.929369 258.54768 
L 109.252569 260.42256 
L 111.575769 261.8136 
L 113.898969 263.059488 
L 116.222169 264.099744 
L 120.868569 265.224672 
L 123.191769 265.732704 
L 134.807769 266.791104 
L 139.454169 266.996736 
L 146.423769 267.16608 
L 155.716569 267.22656 
L 225.412569 267.299136 
L 427.530969 267.202368 
L 446.116569 266.996736 
L 457.732569 266.44032 
L 462.378969 266.023008 
L 462.378969 266.023008 
" clip-path="url(#p089b99a7cf)" style="fill: none; stroke: #4d4d4d; stroke-width: 1.8; stroke-linecap: square"/>
   </g>
   <g id="line2d_24">
    <path d="M 44.202969 267.408 
L 46.526169 258.983136 
L 48.849369 262.164384 
L 53.495769 259.430688 
L 55.818969 259.176672 
L 58.142169 258.329952 
L 60.465369 256.963104 
L 62.788569 256.684896 
L 65.111769 255.420864 
L 69.758169 254.060064 
L 72.081369 252.777888 
L 74.404569 253.1952 
L 76.727769 252.566208 
L 79.050969 252.22752 
L 81.374169 253.122624 
L 83.697369 253.394784 
L 86.020569 254.023776 
L 90.666969 256.406688 
L 92.990169 257.241312 
L 97.636569 259.775424 
L 99.959769 260.72496 
L 102.282969 261.553536 
L 104.606169 262.678464 
L 106.929369 263.494944 
L 109.252569 263.96064 
L 111.575769 264.662208 
L 113.898969 265.224672 
L 116.222169 265.490784 
L 118.545369 266.089536 
L 120.868569 266.464512 
L 123.191769 266.549184 
L 127.838169 266.960448 
L 130.161369 266.942304 
L 134.807769 267.153984 
L 178.948569 267.408 
L 220.766169 267.408 
L 462.378969 267.408 
L 462.378969 267.408 
" clip-path="url(#p089b99a7cf)" style="fill: none; stroke: #0072b2; stroke-width: 1.8; stroke-linecap: square"/>
   </g>
   <g id="line2d_25">
    <path d="M 44.202969 267.408 
L 46.526169 265.5936 
L 48.849369 263.11392 
L 51.172569 260.168544 
L 53.495769 257.707008 
L 55.818969 254.386656 
L 60.465369 246.971808 
L 65.111769 237.875616 
L 67.434969 232.831584 
L 72.081369 221.588352 
L 76.727769 208.730304 
L 79.050969 202.706496 
L 81.374169 196.259328 
L 86.020569 184.27824 
L 88.343769 178.538688 
L 90.666969 173.39184 
L 92.990169 169.085664 
L 95.313369 165.160512 
L 97.636569 161.924832 
L 99.959769 159.54192 
L 102.282969 157.685184 
L 104.606169 156.106656 
L 106.929369 155.374848 
L 111.575769 155.12688 
L 113.898969 155.495808 
L 118.545369 158.217408 
L 120.868569 159.87456 
L 125.514969 165.10608 
L 127.838169 167.470848 
L 130.161369 170.144064 
L 134.807769 176.288832 
L 141.777369 185.85072 
L 144.100569 189.32832 
L 146.423769 192.600288 
L 151.070169 199.482912 
L 153.393369 202.90608 
L 155.716569 206.063136 
L 158.039769 209.480256 
L 160.362969 212.631264 
L 165.009369 218.20752 
L 167.332569 221.310144 
L 176.625369 231.767136 
L 181.271769 236.315232 
L 185.918169 240.113376 
L 190.564569 243.167616 
L 195.210969 245.586816 
L 197.534169 246.608928 
L 199.857369 247.764096 
L 204.503769 249.632928 
L 206.826969 250.467552 
L 209.150169 251.04816 
L 211.473369 251.882784 
L 216.119769 253.140768 
L 220.766169 254.241504 
L 232.382169 256.775616 
L 239.351769 257.954976 
L 241.674969 258.499296 
L 248.644569 259.57584 
L 250.967769 259.860096 
L 253.290969 260.265312 
L 257.937369 260.882208 
L 276.522969 263.017152 
L 283.492569 263.670336 
L 285.815769 263.797344 
L 288.138969 264.05136 
L 309.047769 265.279104 
L 316.017369 265.521024 
L 325.310169 265.871808 
L 346.218969 266.482656 
L 385.713369 267.093504 
L 406.622169 267.202368 
L 460.055769 267.299136 
L 462.378969 267.31728 
L 462.378969 267.31728 
" clip-path="url(#p089b99a7cf)" style="fill: none; stroke: #d55e00; stroke-width: 1.8; stroke-linecap: square"/>
   </g>
   <g id="line2d_26">
    <path d="M 44.202969 267.408 
L 46.526169 265.5936 
L 48.849369 264.728736 
L 51.172569 263.549376 
L 53.495769 262.636128 
L 58.142169 260.126208 
L 60.465369 258.60816 
L 65.111769 255.166848 
L 69.758169 251.538048 
L 76.727769 245.217888 
L 79.050969 242.968032 
L 83.697369 238.220352 
L 88.343769 234.119808 
L 90.666969 232.160256 
L 95.313369 229.051584 
L 97.636569 227.7936 
L 99.959769 226.70496 
L 102.282969 226.027584 
L 104.606169 225.2232 
L 106.929369 224.757504 
L 109.252569 224.491392 
L 113.898969 224.382528 
L 118.545369 224.914752 
L 120.868569 225.477216 
L 123.191769 225.834048 
L 125.514969 226.366272 
L 134.807769 229.589856 
L 139.454169 230.884128 
L 144.100569 232.698528 
L 148.746969 234.17424 
L 162.686169 239.411808 
L 165.009369 240.113376 
L 171.978969 242.67168 
L 176.625369 244.250208 
L 181.271769 245.496096 
L 183.594969 246.252096 
L 192.887769 248.647104 
L 197.534169 249.675264 
L 204.503769 251.253792 
L 211.473369 252.487584 
L 218.442969 253.866528 
L 220.766169 254.19312 
L 230.058969 256.140576 
L 241.674969 258.160608 
L 243.998169 258.408576 
L 253.290969 259.90848 
L 271.876569 262.47888 
L 276.522969 262.944576 
L 288.138969 263.948544 
L 299.754969 264.752928 
L 306.724569 265.152096 
L 325.310169 265.92624 
L 357.834969 266.627808 
L 364.804569 266.754816 
L 374.097369 266.887872 
L 388.036569 267.04512 
L 462.378969 267.371712 
L 462.378969 267.371712 
" clip-path="url(#p089b99a7cf)" style="fill: none; stroke: #cc79a7; stroke-width: 1.8; stroke-linecap: square"/>
   </g>
   <g id="line2d_27">
    <path d="M 44.202969 267.408 
L 113.898969 267.408 
L 120.868569 266.083488 
L 125.514969 265.375872 
L 132.484569 264.002976 
L 153.393369 260.102016 
L 155.716569 259.57584 
L 169.655769 257.271552 
L 174.302169 256.666752 
L 178.948569 255.995424 
L 190.564569 254.743488 
L 204.503769 253.43712 
L 211.473369 252.965376 
L 243.998169 251.362656 
L 290.462169 250.134912 
L 304.401369 249.965568 
L 329.956569 249.790176 
L 336.926169 249.753888 
L 343.895769 251.042112 
L 348.542169 251.71344 
L 357.834969 253.46736 
L 388.036569 258.958944 
L 404.298969 261.232992 
L 427.530969 263.513088 
L 434.500569 263.984832 
L 462.378969 265.400064 
L 462.378969 265.400064 
" clip-path="url(#p089b99a7cf)" style="fill: none; stroke: #009e73; stroke-width: 1.8; stroke-linecap: square"/>
   </g>
   <g id="line2d_28">
    <path d="M 44.202969 267.408 
L 46.526169 267.408 
L 51.172569 267.063264 
L 55.818969 266.736672 
L 62.788569 266.10768 
L 67.434969 265.690368 
L 69.758169 265.448448 
L 72.081369 265.043232 
L 74.404569 264.843648 
L 81.374169 263.700576 
L 90.666969 261.771264 
L 95.313369 260.1504 
L 97.636569 259.2432 
L 102.282969 256.563936 
L 104.606169 255.22128 
L 106.929369 253.425024 
L 111.575769 249.608736 
L 113.898969 247.437504 
L 120.868569 239.883552 
L 130.161369 227.043648 
L 141.777369 208.700064 
L 144.100569 204.647904 
L 146.423769 201.037248 
L 153.393369 189.340416 
L 155.716569 185.94144 
L 158.039769 182.082816 
L 162.686169 175.163904 
L 165.009369 172.012896 
L 167.332569 168.359904 
L 169.655769 165.293568 
L 171.978969 161.997408 
L 176.625369 156.00384 
L 181.271769 150.784416 
L 183.594969 148.341024 
L 185.918169 146.121408 
L 190.564569 142.359552 
L 192.887769 140.720544 
L 197.534169 137.926368 
L 199.857369 136.450656 
L 202.180569 135.132192 
L 206.826969 132.948864 
L 209.150169 132.05376 
L 213.796569 129.955104 
L 232.382169 123.145056 
L 234.705369 122.510016 
L 237.028569 121.723776 
L 239.351769 121.082688 
L 241.674969 120.217824 
L 246.321369 118.977984 
L 253.290969 117.091008 
L 255.614169 116.564832 
L 257.937369 115.911648 
L 262.583769 114.93792 
L 264.906969 114.284736 
L 271.876569 112.784832 
L 290.462169 109.845504 
L 304.401369 108.248832 
L 309.047769 107.807328 
L 334.602969 106.234848 
L 336.926169 106.13808 
L 339.249369 105.53328 
L 341.572569 105.073632 
L 343.895769 104.493024 
L 350.865369 103.059648 
L 357.834969 101.456928 
L 362.481369 100.398528 
L 364.804569 99.981216 
L 371.774169 98.390592 
L 376.420569 97.447104 
L 378.743769 96.878592 
L 392.682969 94.34448 
L 397.329369 93.691296 
L 401.975769 92.971584 
L 418.238169 91.16928 
L 425.207769 90.504 
L 429.854169 90.122976 
L 436.823769 89.772192 
L 441.470169 89.47584 
L 446.116569 89.32464 
L 450.762969 89.270208 
L 455.409369 89.209728 
L 462.378969 89.487936 
L 462.378969 89.487936 
" clip-path="url(#p089b99a7cf)" style="fill: none; stroke: #e69f00; stroke-width: 1.8; stroke-linecap: square"/>
   </g>
   <g id="patch_3">
    <path d="M 44.202969 276.48 
L 44.202969 76.896 
" style="fill: none; stroke: #000000; stroke-width: 0.8; stroke-linejoin: miter; stroke-linecap: square"/>
   </g>
   <g id="patch_4">
    <path d="M 44.202969 276.48 
L 462.378969 276.48 
" style="fill: none; stroke: #000000; stroke-width: 0.8; stroke-linejoin: miter; stroke-linecap: square"/>
   </g>
  </g>
  <g id="text_19">
   <text style="font-weight: 700; font-size: 10px; font-family: 'Songti SC', 'STSong', 'Heiti SC', 'Arial Unicode MS', 'DejaVu Sans', sans-serif; text-anchor: start" x="46.578969" y="15.8" transform="rotate(-0 46.578969 15.8)">线上单维辟谣干预 T=30（30 seed 均值曲线）</text>
  </g>
  <g id="legend_1">
   <g id="line2d_29">
    <path d="M 135.310594 34.32 
L 143.310594 34.32 
L 151.310594 34.32 
" style="fill: none; stroke: #4d4d4d; stroke-width: 1.8; stroke-linecap: square"/>
   </g>
   <g id="text_20">
    <text style="font-size: 8px; font-family: 'Songti SC', 'STSong', 'Heiti SC', 'Arial Unicode MS', 'DejaVu Sans', sans-serif; text-anchor: start" x="157.710594" y="37.12" transform="rotate(-0 157.710594 37.12)">S 未知者</text>
   </g>
   <g id="line2d_30">
    <path d="M 135.310594 46.53625 
L 143.310594 46.53625 
L 151.310594 46.53625 
" style="fill: none; stroke: #0072b2; stroke-width: 1.8; stroke-linecap: square"/>
   </g>
   <g id="text_21">
    <text style="font-size: 8px; font-family: 'Songti SC', 'STSong', 'Heiti SC', 'Arial Unicode MS', 'DejaVu Sans', sans-serif; text-anchor: start" x="157.710594" y="49.33625" transform="rotate(-0 157.710594 49.33625)">E 潜伏者</text>
   </g>
   <g id="line2d_31">
    <path d="M 204.974344 34.32 
L 212.974344 34.32 
L 220.974344 34.32 
" style="fill: none; stroke: #d55e00; stroke-width: 1.8; stroke-linecap: square"/>
   </g>
   <g id="text_22">
    <text style="font-size: 8px; font-family: 'Songti SC', 'STSong', 'Heiti SC', 'Arial Unicode MS', 'DejaVu Sans', sans-serif; text-anchor: start" x="227.374344" y="37.12" transform="rotate(-0 227.374344 37.12)">I1 线上传播者</text>
   </g>
   <g id="line2d_32">
    <path d="M 204.974344 46.53625 
L 212.974344 46.53625 
L 220.974344 46.53625 
" style="fill: none; stroke: #cc79a7; stroke-width: 1.8; stroke-linecap: square"/>
   </g>
   <g id="text_23">
    <text style="font-size: 8px; font-family: 'Songti SC', 'STSong', 'Heiti SC', 'Arial Unicode MS', 'DejaVu Sans', sans-serif; text-anchor: start" x="227.374344" y="49.33625" transform="rotate(-0 227.374344 49.33625)">I2 线下传播者</text>
   </g>
   <g id="line2d_33">
    <path d="M 291.959344 34.32 
L 299.959344 34.32 
L 307.959344 34.32 
" style="fill: none; stroke: #009e73; stroke-width: 1.8; stroke-linecap: square"/>
   </g>
   <g id="text_24">
    <text style="font-size: 8px; font-family: 'Songti SC', 'STSong', 'Heiti SC', 'Arial Unicode MS', 'DejaVu Sans', sans-serif; text-anchor: start" x="314.359344" y="37.12" transform="rotate(-0 314.359344 37.12)">G1 线上辟谣干预状态</text>
   </g>
   <g id="line2d_34">
    <path d="M 291.959344 46.5925 
L 299.959344 46.5925 
L 307.959344 46.5925 
" style="fill: none; stroke: #e69f00; stroke-width: 1.8; stroke-linecap: square"/>
   </g>
   <g id="text_25">
    <text style="font-size: 8px; font-family: 'Songti SC', 'STSong', 'Heiti SC', 'Arial Unicode MS', 'DejaVu Sans', sans-serif; text-anchor: start" x="314.359344" y="49.3925" transform="rotate(-0 314.359344 49.3925)">R 免疫者</text>
   </g>
  </g>
 </g>
 <defs>
  <clipPath id="p089b99a7cf">
   <rect x="44.202969" y="76.896" width="418.176" height="199.584"/>
  </clipPath>
 </defs>
</svg>
